# Blender v2.79 (sub 0) OBJ File: 'LanderwHeatShield.blend'
# www.blender.org
mtllib LanderwHeatShield.mtl
o Circle
v 0.771588 1.618566 -0.000000
v 0.756762 1.587466 0.349811
v 0.712854 1.495360 0.686179
v 0.641552 1.345788 0.996177
v 0.545595 1.144499 1.267892
v 0.428671 0.899227 1.490884
v 0.295274 0.619398 1.656582
v 0.150529 0.315767 1.758617
v 0.000000 0.000000 1.793071
v -0.150529 -0.315766 1.758618
v -0.295274 -0.619398 1.656582
v -0.428671 -0.899227 1.490884
v -0.545595 -1.144499 1.267892
v -0.641552 -1.345789 0.996177
v -0.712854 -1.495360 0.686178
v -0.756762 -1.587466 0.349810
v -0.771588 -1.618566 -0.000001
v -0.756762 -1.587466 -0.349812
v -0.712854 -1.495360 -0.686179
v -0.641552 -1.345788 -0.996178
v -0.545595 -1.144498 -1.267893
v -0.428671 -0.899226 -1.490885
v -0.295273 -0.619397 -1.656582
v -0.150529 -0.315765 -1.758618
v 0.000001 0.000002 -1.793071
v 0.150530 0.315768 -1.758617
v 0.295275 0.619400 -1.656581
v 0.428672 0.899229 -1.490883
v 0.545596 1.144500 -1.267891
v 0.641552 1.345790 -0.996175
v 0.712855 1.495361 -0.686176
v 0.756762 1.587466 -0.349808
v 0.781067 -0.158952 0.000000
v 0.779475 -0.162293 0.037579
v 0.774758 -0.172188 0.073714
v 0.767098 -0.188256 0.107016
v 0.756790 -0.209880 0.136205
v 0.744229 -0.236228 0.160160
v 0.729899 -0.266289 0.177960
v 0.714349 -0.298907 0.188922
v 0.698179 -0.332829 0.192623
v 0.682008 -0.366750 0.188922
v 0.666459 -0.399368 0.177960
v 0.652128 -0.429429 0.160160
v 0.639567 -0.455778 0.136205
v 0.629259 -0.477402 0.107016
v 0.621599 -0.493470 0.073714
v 0.616883 -0.503364 0.037579
v 0.615290 -0.506705 0.000000
v 0.616883 -0.503364 -0.037579
v 0.621599 -0.493470 -0.073713
v 0.629259 -0.477402 -0.107015
v 0.639567 -0.455778 -0.136205
v 0.652128 -0.429429 -0.160160
v 0.666459 -0.399368 -0.177960
v 0.682008 -0.366750 -0.188921
v 0.698179 -0.332829 -0.192623
v 0.714350 -0.298907 -0.188921
v 0.729899 -0.266289 -0.177960
v 0.744229 -0.236228 -0.160160
v 0.756790 -0.209879 -0.136205
v 0.767098 -0.188256 -0.107015
v 0.774758 -0.172188 -0.073713
v 0.779475 -0.162293 -0.037578
v -0.140500 1.391684 0.000000
v -0.150387 1.370944 0.233286
v -0.179669 1.309519 0.457606
v -0.227220 1.209771 0.664342
v -0.291213 1.075533 0.845546
v -0.369188 0.911963 0.994258
v -0.458150 0.725348 1.104760
v -0.554679 0.522859 1.172806
v -0.655065 0.312277 1.195783
v -0.755452 0.101695 1.172807
v -0.851981 -0.100794 1.104760
v -0.940942 -0.287410 0.994258
v -1.018918 -0.450979 0.845546
v -1.082911 -0.585218 0.664342
v -1.130462 -0.684966 0.457606
v -1.159743 -0.746390 0.233285
v -1.169630 -0.767130 -0.000000
v -1.159743 -0.746390 -0.233286
v -1.130461 -0.684966 -0.457607
v -1.082911 -0.585217 -0.664342
v -1.018918 -0.450979 -0.845547
v -0.940942 -0.287409 -0.994258
v -0.851981 -0.100794 -1.104760
v -0.755452 0.101696 -1.172807
v -0.655065 0.312278 -1.195783
v -0.554678 0.522860 -1.172806
v -0.458149 0.725349 -1.104759
v -0.369188 0.911965 -0.994256
v -0.291212 1.075534 -0.845545
v -0.227220 1.209772 -0.664340
v -0.179669 1.309520 -0.457605
v -0.150387 1.370944 -0.233284
v -0.757228 0.887579 0.000000
v -0.761158 0.879335 0.092736
v -0.772798 0.854917 0.181909
v -0.791701 0.815265 0.264091
v -0.817139 0.761902 0.336124
v -0.848136 0.696880 0.395240
v -0.883500 0.622696 0.439167
v -0.921873 0.542202 0.466217
v -0.961779 0.458491 0.475351
v -1.001685 0.374780 0.466217
v -1.040057 0.294286 0.439167
v -1.075421 0.220102 0.395240
v -1.106418 0.155079 0.336124
v -1.131857 0.101716 0.264091
v -1.150759 0.062064 0.181909
v -1.162400 0.037647 0.092736
v -1.166330 0.029402 -0.000000
v -1.162400 0.037647 -0.092736
v -1.150759 0.062064 -0.181909
v -1.131857 0.101716 -0.264091
v -1.106418 0.155079 -0.336124
v -1.075421 0.220102 -0.395240
v -1.040057 0.294286 -0.439167
v -1.001685 0.374780 -0.466217
v -0.961779 0.458491 -0.475351
v -0.921873 0.542202 -0.466217
v -0.883500 0.622696 -0.439167
v -0.848136 0.696880 -0.395239
v -0.817139 0.761903 -0.336123
v -0.791700 0.815265 -0.264090
v -0.772798 0.854917 -0.181908
v -0.761158 0.879335 -0.092735
v -1.154389 0.858517 0.000000
v -1.156690 0.853691 0.054276
v -1.163502 0.839400 0.106467
v -1.174566 0.816193 0.154566
v -1.189454 0.784961 0.196725
v -1.207596 0.746905 0.231324
v -1.228294 0.703487 0.257034
v -1.250752 0.656376 0.272866
v -1.274108 0.607382 0.278211
v -1.297464 0.558388 0.272866
v -1.319923 0.511276 0.257034
v -1.340621 0.467858 0.231324
v -1.358762 0.429802 0.196725
v -1.373651 0.398570 0.154566
v -1.384714 0.375363 0.106467
v -1.391527 0.361072 0.054276
v -1.393827 0.356246 0.000000
v -1.391527 0.361072 -0.054276
v -1.384714 0.375363 -0.106467
v -1.373651 0.398570 -0.154566
v -1.358762 0.429802 -0.196725
v -1.340620 0.467858 -0.231324
v -1.319923 0.511276 -0.257034
v -1.297464 0.558388 -0.272865
v -1.274108 0.607382 -0.278211
v -1.250752 0.656376 -0.272865
v -1.228294 0.703487 -0.257033
v -1.207596 0.746905 -0.231324
v -1.189454 0.784961 -0.196725
v -1.174566 0.816193 -0.154565
v -1.163502 0.839400 -0.106466
v -1.156690 0.853691 -0.054276
vn -0.6462 0.7348 -0.2059
vn -0.9991 -0.0053 -0.0428
vn -0.9312 0.1369 0.3377
vn -0.6321 0.7644 -0.1268
vn -0.9919 0.0098 -0.1268
vn -0.9573 0.0823 0.2771
vn -0.6249 0.7795 -0.0428
vn -0.9778 0.0393 -0.2059
vn -0.9778 0.0393 0.2059
vn -0.6249 0.7795 0.0428
vn -0.9573 0.0823 -0.2771
vn -0.9919 0.0098 0.1268
vn -0.6321 0.7644 0.1268
vn -0.9312 0.1369 -0.3377
vn -0.9991 -0.0053 0.0428
vn -0.6462 0.7348 0.2059
vn -0.9006 0.2012 -0.3852
vn -0.6667 0.6919 0.2771
vn -0.8666 0.2726 -0.4180
vn -0.6927 0.6372 0.3377
vn -0.8304 0.3484 -0.4347
vn -0.7234 0.5730 0.3852
vn -0.7936 0.4257 -0.4347
vn -0.7574 0.5016 0.4180
vn -0.7574 0.5016 -0.4180
vn -0.7936 0.4257 0.4347
vn -0.7234 0.5730 -0.3852
vn -0.8304 0.3484 0.4347
vn -0.6927 0.6372 -0.3377
vn -0.8666 0.2726 0.4180
vn -0.6667 0.6919 -0.2771
vn -0.9006 0.2012 0.3852
vn 0.8656 0.3432 -0.3647
vn 0.2407 -0.9676 -0.0758
vn 0.3608 -0.7157 0.5980
vn 0.8906 0.3956 -0.2246
vn 0.2534 -0.9409 -0.2246
vn 0.3147 -0.8125 0.4908
vn 0.9033 0.4223 -0.0758
vn 0.2784 -0.8885 -0.3647
vn 0.2784 -0.8885 0.3647
vn 0.9033 0.4223 0.0758
vn 0.3147 -0.8125 -0.4908
vn 0.2534 -0.9409 0.2246
vn 0.8906 0.3956 0.2246
vn 0.3608 -0.7157 -0.5980
vn 0.2407 -0.9676 0.0758
vn 0.8656 0.3432 0.3647
vn 0.4151 -0.6019 -0.6823
vn 0.8293 0.2671 0.4908
vn 0.4754 -0.4754 -0.7403
vn 0.7832 0.1703 0.5980
vn 0.5394 -0.3411 -0.7699
vn 0.7289 0.0565 0.6823
vn 0.6046 -0.2042 -0.7699
vn 0.6686 -0.0700 0.7403
vn 0.6686 -0.0700 -0.7403
vn 0.6046 -0.2042 0.7699
vn 0.7289 0.0565 -0.6823
vn 0.5394 -0.3411 0.7699
vn 0.7832 0.1703 -0.5980
vn 0.4754 -0.4754 0.7403
vn 0.8293 0.2671 -0.4908
vn 0.4151 -0.6019 0.6823
vn 0.9326 -0.1436 -0.3310
vn 0.7622 -0.5011 0.4098
vn 0.9582 -0.0900 -0.2717
vn 0.7288 -0.5711 0.3777
vn 0.9782 -0.0479 -0.2019
vn 0.6323 -0.7736 -0.0420
vn 0.6988 -0.6341 0.3310
vn 0.9921 -0.0189 -0.1243
vn 0.6394 -0.7588 -0.1243
vn 0.6733 -0.6877 0.2717
vn 0.9991 -0.0041 -0.0420
vn 0.6532 -0.7298 -0.2019
vn 0.6532 -0.7298 0.2019
vn 0.9991 -0.0041 0.0420
vn 0.6733 -0.6877 -0.2717
vn 0.6394 -0.7588 0.1243
vn 0.9921 -0.0189 0.1243
vn 0.6988 -0.6341 -0.3310
vn 0.6323 -0.7736 0.0420
vn 0.9782 -0.0479 0.2019
vn 0.7288 -0.5711 -0.3777
vn 0.9582 -0.0900 0.2717
vn 0.7622 -0.5011 -0.4098
vn 0.9326 -0.1436 0.3310
vn 0.7976 -0.4268 -0.4262
vn 0.9026 -0.2066 0.3777
vn 0.8338 -0.3510 -0.4262
vn 0.8692 -0.2766 0.4098
vn 0.8692 -0.2766 -0.4098
vn 0.8338 -0.3510 0.4262
vn 0.9026 -0.2066 -0.3777
vn 0.7976 -0.4267 0.4262
vn 0.8035 0.5392 -0.2525
vn 0.0870 -0.9637 -0.2525
vn 0.1559 -0.8192 0.5519
vn 0.8178 0.5692 -0.0853
vn 0.1151 -0.9048 -0.4101
vn 0.1151 -0.9048 0.4101
vn 0.8178 0.5692 0.0853
vn 0.1559 -0.8192 -0.5519
vn 0.0870 -0.9637 0.2525
vn 0.8035 0.5392 0.2525
vn 0.2078 -0.7104 -0.6724
vn 0.0727 -0.9937 0.0853
vn 0.7754 0.4803 0.4101
vn 0.2688 -0.5824 -0.7672
vn 0.7346 0.3947 0.5519
vn 0.3366 -0.4402 -0.8324
vn 0.6827 0.2859 0.6724
vn 0.4086 -0.2892 -0.8657
vn 0.6217 0.1579 0.7672
vn 0.4819 -0.1353 -0.8657
vn 0.5539 0.0157 0.8324
vn 0.5539 0.0157 -0.8324
vn 0.4819 -0.1353 0.8657
vn 0.6217 0.1579 -0.7672
vn 0.4085 -0.2892 0.8657
vn 0.6827 0.2859 -0.6724
vn 0.3366 -0.4402 0.8324
vn 0.7346 0.3947 -0.5519
vn 0.2688 -0.5824 0.7672
vn 0.7754 0.4803 -0.4101
vn 0.0727 -0.9937 -0.0853
vn 0.2078 -0.7104 0.6724
vn 0.9027 -0.4303 -0.0000
vn -0.9027 0.4303 0.0000
vn -0.6928 0.6372 0.3377
vn 0.7976 -0.4267 -0.4262
vn 0.7976 -0.4268 0.4262
usemtl None
s off
f 14//1 47//1 15//1
f 1//2 34//2 2//2
f 28//3 61//3 29//3
f 16//4 47//4 48//4
f 2//5 35//5 3//5
f 30//6 61//6 62//6
f 16//7 49//7 17//7
f 3//8 36//8 4//8
f 30//9 63//9 31//9
f 18//10 49//10 50//10
f 4//11 37//11 5//11
f 31//12 64//12 32//12
f 19//13 50//13 51//13
f 5//14 38//14 6//14
f 32//15 33//15 1//15
f 20//16 51//16 52//16
f 6//17 39//17 7//17
f 20//18 53//18 21//18
f 8//19 39//19 40//19
f 21//20 54//20 22//20
f 8//21 41//21 9//21
f 23//22 54//22 55//22
f 10//23 41//23 42//23
f 24//24 55//24 56//24
f 10//25 43//25 11//25
f 24//26 57//26 25//26
f 11//27 44//27 12//27
f 25//28 58//28 26//28
f 13//29 44//29 45//29
f 26//30 59//30 27//30
f 13//31 46//31 14//31
f 27//32 60//32 28//32
f 14//33 79//33 78//33
f 2//34 65//34 1//34
f 29//35 92//35 28//35
f 16//36 79//36 15//36
f 2//37 67//37 66//37
f 30//38 93//38 29//38
f 17//39 80//39 16//39
f 4//40 67//40 3//40
f 31//41 94//41 30//41
f 17//42 82//42 81//42
f 5//43 68//43 4//43
f 32//44 95//44 31//44
f 19//45 82//45 18//45
f 5//46 70//46 69//46
f 1//47 96//47 32//47
f 20//48 83//48 19//48
f 6//49 71//49 70//49
f 21//50 84//50 20//50
f 8//51 71//51 7//51
f 22//52 85//52 21//52
f 9//53 72//53 8//53
f 23//54 86//54 22//54
f 9//55 74//55 73//55
f 24//56 87//56 23//56
f 11//57 74//57 10//57
f 25//58 88//58 24//58
f 11//59 76//59 75//59
f 26//60 89//60 25//60
f 13//61 76//61 12//61
f 27//62 90//62 26//62
f 14//63 77//63 13//63
f 28//64 91//64 27//64
f 77//65 108//65 76//65
f 91//66 122//66 90//66
f 77//67 110//67 109//67
f 91//68 124//68 123//68
f 79//69 110//69 78//69
f 65//70 98//70 97//70
f 93//71 124//71 92//71
f 80//72 111//72 79//72
f 67//73 98//73 66//73
f 94//74 125//74 93//74
f 81//75 112//75 80//75
f 68//76 99//76 67//76
f 94//77 127//77 126//77
f 81//78 114//78 113//78
f 69//79 100//79 68//79
f 96//80 127//80 95//80
f 83//81 114//81 82//81
f 70//82 101//82 69//82
f 65//83 128//83 96//83
f 84//84 115//84 83//84
f 70//85 103//85 102//85
f 85//86 116//86 84//86
f 72//87 103//87 71//87
f 86//88 117//88 85//88
f 72//89 105//89 104//89
f 86//90 119//90 118//90
f 74//91 105//91 73//91
f 88//92 119//92 87//92
f 75//93 106//93 74//93
f 88//94 121//94 120//94
f 76//95 107//95 75//95
f 90//96 121//96 89//96
f 112//97 143//97 111//97
f 98//98 131//98 130//98
f 126//99 157//99 125//99
f 113//100 144//100 112//100
f 100//101 131//101 99//101
f 127//102 158//102 126//102
f 113//103 146//103 145//103
f 101//104 132//104 100//104
f 127//105 160//105 159//105
f 115//106 146//106 114//106
f 102//107 133//107 101//107
f 97//108 160//108 128//108
f 116//109 147//109 115//109
f 102//110 135//110 134//110
f 117//111 148//111 116//111
f 104//112 135//112 103//112
f 118//113 149//113 117//113
f 105//114 136//114 104//114
f 119//115 150//115 118//115
f 105//116 138//116 137//116
f 120//117 151//117 119//117
f 106//118 139//118 138//118
f 121//119 152//119 120//119
f 107//120 140//120 139//120
f 122//121 153//121 121//121
f 108//122 141//122 140//122
f 123//123 154//123 122//123
f 110//124 141//124 109//124
f 124//125 155//125 123//125
f 111//126 142//126 110//126
f 98//127 129//127 97//127
f 125//128 156//128 124//128
f 145//129 153//129 129//129
f 51//130 43//130 35//130
f 14//1 46//1 47//1
f 1//2 33//2 34//2
f 28//3 60//3 61//3
f 16//4 15//4 47//4
f 2//5 34//5 35//5
f 30//6 29//6 61//6
f 16//7 48//7 49//7
f 3//8 35//8 36//8
f 30//9 62//9 63//9
f 18//10 17//10 49//10
f 4//11 36//11 37//11
f 31//12 63//12 64//12
f 19//13 18//13 50//13
f 5//14 37//14 38//14
f 32//15 64//15 33//15
f 20//16 19//16 51//16
f 6//17 38//17 39//17
f 20//18 52//18 53//18
f 8//19 7//19 39//19
f 21//131 53//131 54//131
f 8//21 40//21 41//21
f 23//22 22//22 54//22
f 10//23 9//23 41//23
f 24//24 23//24 55//24
f 10//25 42//25 43//25
f 24//26 56//26 57//26
f 11//27 43//27 44//27
f 25//28 57//28 58//28
f 13//29 12//29 44//29
f 26//30 58//30 59//30
f 13//31 45//31 46//31
f 27//32 59//32 60//32
f 14//33 15//33 79//33
f 2//34 66//34 65//34
f 29//35 93//35 92//35
f 16//36 80//36 79//36
f 2//37 3//37 67//37
f 30//38 94//38 93//38
f 17//39 81//39 80//39
f 4//40 68//40 67//40
f 31//41 95//41 94//41
f 17//42 18//42 82//42
f 5//43 69//43 68//43
f 32//44 96//44 95//44
f 19//45 83//45 82//45
f 5//46 6//46 70//46
f 1//47 65//47 96//47
f 20//48 84//48 83//48
f 6//49 7//49 71//49
f 21//50 85//50 84//50
f 8//51 72//51 71//51
f 22//52 86//52 85//52
f 9//53 73//53 72//53
f 23//54 87//54 86//54
f 9//55 10//55 74//55
f 24//56 88//56 87//56
f 11//57 75//57 74//57
f 25//58 89//58 88//58
f 11//59 12//59 76//59
f 26//60 90//60 89//60
f 13//61 77//61 76//61
f 27//62 91//62 90//62
f 14//63 78//63 77//63
f 28//64 92//64 91//64
f 77//65 109//65 108//65
f 91//66 123//66 122//66
f 77//67 78//67 110//67
f 91//68 92//68 124//68
f 79//69 111//69 110//69
f 65//70 66//70 98//70
f 93//71 125//71 124//71
f 80//72 112//72 111//72
f 67//73 99//73 98//73
f 94//74 126//74 125//74
f 81//75 113//75 112//75
f 68//76 100//76 99//76
f 94//77 95//77 127//77
f 81//78 82//78 114//78
f 69//79 101//79 100//79
f 96//80 128//80 127//80
f 83//81 115//81 114//81
f 70//82 102//82 101//82
f 65//83 97//83 128//83
f 84//84 116//84 115//84
f 70//85 71//85 103//85
f 85//86 117//86 116//86
f 72//87 104//87 103//87
f 86//88 118//88 117//88
f 72//132 73//132 105//132
f 86//90 87//90 119//90
f 74//91 106//91 105//91
f 88//92 120//92 119//92
f 75//93 107//93 106//93
f 88//94 89//94 121//94
f 76//95 108//95 107//95
f 90//133 122//133 121//133
f 112//97 144//97 143//97
f 98//98 99//98 131//98
f 126//99 158//99 157//99
f 113//100 145//100 144//100
f 100//101 132//101 131//101
f 127//102 159//102 158//102
f 113//103 114//103 146//103
f 101//104 133//104 132//104
f 127//105 128//105 160//105
f 115//106 147//106 146//106
f 102//107 134//107 133//107
f 97//108 129//108 160//108
f 116//109 148//109 147//109
f 102//110 103//110 135//110
f 117//111 149//111 148//111
f 104//112 136//112 135//112
f 118//113 150//113 149//113
f 105//114 137//114 136//114
f 119//115 151//115 150//115
f 105//116 106//116 138//116
f 120//117 152//117 151//117
f 106//118 107//118 139//118
f 121//119 153//119 152//119
f 107//120 108//120 140//120
f 122//121 154//121 153//121
f 108//122 109//122 141//122
f 123//123 155//123 154//123
f 110//124 142//124 141//124
f 124//125 156//125 155//125
f 111//126 143//126 142//126
f 98//127 130//127 129//127
f 125//128 157//128 156//128
f 129//129 130//129 133//129
f 130//129 131//129 133//129
f 131//129 132//129 133//129
f 133//129 134//129 137//129
f 134//129 135//129 137//129
f 135//129 136//129 137//129
f 137//129 138//129 139//129
f 139//129 140//129 141//129
f 141//129 142//129 143//129
f 143//129 144//129 145//129
f 145//129 146//129 147//129
f 147//129 148//129 145//129
f 148//129 149//129 145//129
f 149//129 150//129 151//129
f 151//129 152//129 149//129
f 152//129 153//129 149//129
f 153//129 154//129 157//129
f 154//129 155//129 157//129
f 155//129 156//129 157//129
f 157//129 158//129 129//129
f 158//129 159//129 129//129
f 159//129 160//129 129//129
f 137//129 139//129 141//129
f 141//129 143//129 145//129
f 129//129 133//129 137//129
f 137//129 141//129 145//129
f 145//129 149//129 153//129
f 153//129 157//129 129//129
f 129//129 137//129 145//129
f 35//130 34//130 33//130
f 33//130 64//130 35//130
f 64//130 63//130 35//130
f 63//130 62//130 59//130
f 62//130 61//130 59//130
f 61//130 60//130 59//130
f 59//130 58//130 55//130
f 58//130 57//130 55//130
f 57//130 56//130 55//130
f 55//130 54//130 51//130
f 54//130 53//130 51//130
f 53//130 52//130 51//130
f 51//130 50//130 49//130
f 49//130 48//130 51//130
f 48//130 47//130 51//130
f 47//130 46//130 45//130
f 45//130 44//130 43//130
f 43//130 42//130 39//130
f 42//130 41//130 39//130
f 41//130 40//130 39//130
f 39//130 38//130 37//130
f 37//130 36//130 35//130
f 47//130 45//130 51//130
f 45//130 43//130 51//130
f 39//130 37//130 43//130
f 37//130 35//130 43//130
f 35//130 63//130 59//130
f 59//130 55//130 51//130
f 35//130 59//130 51//130
